#N canvas 217 95 1125 690 10;
#X obj 320 282 pix_texture;
#X obj -3 87 gemwin;
#X obj 336 83 vsl 15 128 0 1 0 0 empty empty empty 0 -9 0 10 -258113
-1 -1 10008 1;
#X obj 360 84 vsl 15 128 0 1 0 0 empty empty empty 0 -9 0 10 -4034
-1 -1 12605 1;
#X obj 383 84 vsl 15 128 0 1 0 0 empty empty empty 0 -9 0 10 -4160
-1 -1 7819 1;
#X obj 320 251 colorRGB 0 1 0;
#X obj 362 400 + 0.1;
#X obj 455 285 pix_texture;
#X obj 472 86 vsl 15 128 0 1 0 0 empty empty empty 0 -9 0 10 -258113
-1 -1 11690 1;
#X obj 495 87 vsl 15 128 0 1 0 0 empty empty empty 0 -9 0 10 -4034
-1 -1 11775 1;
#X obj 518 87 vsl 15 128 0 1 0 0 empty empty empty 0 -9 0 10 -4160
-1 -1 2857 1;
#X obj 455 254 colorRGB 0 1 0;
#X obj 455 223 gemhead;
#X obj 318 222 gemhead;
#X obj 337 8 r sinus0;
#X obj 594 286 pix_texture;
#X obj 611 87 vsl 15 128 0 1 0 0 empty empty empty 0 -9 0 10 -258113
-1 -1 12683 1;
#X obj 634 88 vsl 15 128 0 1 0 0 empty empty empty 0 -9 0 10 -4034
-1 -1 9438 1;
#X obj 657 88 vsl 15 128 0 1 0 0 empty empty empty 0 -9 0 10 -4160
-1 -1 664 1;
#X obj 594 255 colorRGB 0 1 0;
#X obj 594 224 gemhead;
#X obj 727 284 pix_texture;
#X obj 744 85 vsl 15 128 0 1 0 0 empty empty empty 0 -9 0 10 -258113
-1 -1 12422 1;
#X obj 767 86 vsl 15 128 0 1 0 0 empty empty empty 0 -9 0 10 -4034
-1 -1 6917 1;
#X obj 790 86 vsl 15 128 0 1 0 0 empty empty empty 0 -9 0 10 -4160
-1 -1 2641 1;
#X obj 727 253 colorRGB 0 1 0;
#X obj 727 222 gemhead;
#X obj 360 30 r sinus0b;
#X obj 383 50 r sinus0c;
#X obj 362 341 r sinus0;
#X obj 363 369 / 10;
#X obj 472 10 r sinus01;
#X obj 495 35 r sinus0b1;
#X obj 518 59 r sinus0c1;
#X obj 497 403 + 0.08;
#X obj 636 404 + 0.11;
#X obj 498 371 / 10;
#X obj 770 371 / 10;
#X obj 637 373 / 10;
#X obj 768 404 + 0.06;
#X obj 609 10 r sinus02;
#X obj 631 32 r sinus0b2;
#X obj 642 54 r sinus0c2;
#X obj 636 345 r sinus02;
#X obj 748 2 r sinus03;
#X obj 774 27 r sinus0b3;
#X obj 795 53 r sinus0c3;
#X obj 500 345 r sinus0c;
#X obj 770 343 r sinus0c1;
#X obj 319 439 rectangle 0.2 4;
#X obj 454 436 rectangle 0.2 4;
#X obj 593 441 rectangle 0.2 4;
#X obj 725 436 rectangle 0.2 4;
#X msg 25 57 destroy;
#X msg 14 30 0;
#X text 45 30 stop rendering;
#X floatatom 64 395 5 0 0 0 - - -;
#X obj 64 231 netreceive 3002 1;
#X obj 593 316 translate 4 -1 0 0;
#X obj 451 315 translate 3.7 -1 0 0;
#X obj 296 314 translate 3.35 -1 0 0;
#X obj 722 314 translate 3.1 -1 0 0;
#X text 619 -19 4;
#X text 744 -21 3.1;
#X text 475 -14 3.7;
#X text 342 -17 3.35;
#X obj 876 285 pix_texture;
#X obj 893 86 vsl 15 128 0 1 0 0 empty empty empty 0 -9 0 10 -258113
-1 -1 10143 1;
#X obj 916 87 vsl 15 128 0 1 0 0 empty empty empty 0 -9 0 10 -4034
-1 -1 2857 1;
#X obj 939 87 vsl 15 128 0 1 0 0 empty empty empty 0 -9 0 10 -4160
-1 -1 6730 1;
#X obj 876 254 colorRGB 0 1 0;
#X obj 876 223 gemhead;
#X obj 919 372 / 10;
#X obj 917 405 + 0.06;
#X obj 874 437 rectangle 0.2 4;
#X obj 897 3 r sinus04;
#X obj 923 28 r sinus0b4;
#X obj 919 344 r sinus0;
#X obj 867 315 translate 2.8 -1 0 0;
#X text 735 -31 stripe 3;
#X text 336 -31 stripe 0;
#X text 461 -30 stripe 1;
#X text 604 -30 stripe 2;
#X text 873 -32 stripe 4;
#X text 968 -8 comment;
#X text 887 -19 2.8;
#X obj 12 1 s bang;
#X obj 18 671 pix_texture;
#X obj 18 640 colorRGB 0 1 0;
#X obj 60 789 + 0.1;
#X obj 167 673 pix_texture;
#X obj 167 642 colorRGB 0 1 0;
#X obj 31 538 r sinus0;
#X obj 306 674 pix_texture;
#X obj 306 643 colorRGB 0 1 0;
#X obj 54 560 r sinus0b;
#X obj 77 580 r sinus0c;
#X obj 61 758 / 10;
#X obj 180 539 r sinus01;
#X obj 203 564 r sinus0b1;
#X obj 226 588 r sinus0c1;
#X obj 206 791 + 0.08;
#X obj 348 792 + 0.11;
#X obj 207 759 / 10;
#X obj 349 761 / 10;
#X obj 324 539 r sinus02;
#X obj 345 561 r sinus0b2;
#X obj 363 583 r sinus0c2;
#X obj 18 817 rectangle 0.2 4;
#X obj 163 817 rectangle 0.2 4;
#X obj 305 822 rectangle 0.2 4;
#X text 179 490 stripe 1;
#X text 322 490 stripe 2;
#X text 43 490 stripe 0;
#X obj 60 730 r sinus0b3;
#X obj 209 733 r sinus0b4;
#X obj 348 733 r sinus01;
#X obj 164 701 translate -1.5 -1 0 0;
#X obj 310 704 translate -0.8 -1 0 0;
#X obj 18 699 translate -2.1 -1 0 0;
#X text 331 510 -0.8;
#X text 187 515 -1.5;
#X text 40 513 -2.1;
#X obj 17 605 gemhead 55;
#X obj 64 334 - 4;
#X obj 64 310 / 13;
#X msg 96 337 -1;
#X obj 64 367 *;
#X obj 87 445 + 0.3;
#X obj 167 611 gemhead 55;
#X obj 306 612 gemhead 55;
#X obj 135 444 + 0.7;
#N canvas 324 412 1372 491 sinus 0;
#X obj 35 167 sin;
#X obj 35 142 * 6.28319;
#X obj 35 122 / 360;
#X obj 35 196 abs;
#X obj 35 228 s sinus0;
#X obj 35 46 r metro;
#X obj 99 168 sin;
#X obj 99 143 * 6.28319;
#X obj 99 123 / 360;
#X obj 99 197 abs;
#X obj 100 48 r metro;
#X obj 99 229 s sinus0b;
#X obj 168 167 sin;
#X obj 168 142 * 6.28319;
#X obj 168 122 / 360;
#X obj 168 196 abs;
#X obj 169 47 r metro;
#X obj 169 84 + 90;
#X obj 168 228 s sinus0c;
#X obj 100 88 + 45;
#X obj 297 168 sin;
#X obj 297 143 * 6.28319;
#X obj 297 123 / 360;
#X obj 297 197 abs;
#X obj 297 47 r metro;
#X obj 365 169 sin;
#X obj 365 144 * 6.28319;
#X obj 365 124 / 360;
#X obj 365 198 abs;
#X obj 364 49 r metro;
#X obj 440 168 sin;
#X obj 440 143 * 6.28319;
#X obj 440 123 / 360;
#X obj 440 197 abs;
#X obj 441 48 r metro;
#X obj 297 229 s sinus01;
#X obj 365 230 s sinus0b1;
#X obj 440 229 s sinus0c1;
#X obj 567 168 sin;
#X obj 567 143 * 6.28319;
#X obj 567 123 / 360;
#X obj 567 197 abs;
#X obj 567 47 r metro;
#X obj 635 169 sin;
#X obj 635 144 * 6.28319;
#X obj 635 124 / 360;
#X obj 635 198 abs;
#X obj 636 49 r metro;
#X obj 708 168 sin;
#X obj 708 143 * 6.28319;
#X obj 708 123 / 360;
#X obj 708 197 abs;
#X obj 706 48 r metro;
#X obj 567 229 s sinus02;
#X obj 635 230 s sinus0b2;
#X obj 708 229 s sinus0c2;
#X obj 297 89 + 15;
#X obj 364 89 + 60;
#X obj 441 85 + 115;
#X obj 567 89 + 35;
#X obj 841 162 sin;
#X obj 841 137 * 6.28319;
#X obj 841 117 / 360;
#X obj 841 191 abs;
#X obj 841 41 r metro;
#X obj 909 163 sin;
#X obj 909 138 * 6.28319;
#X obj 909 118 / 360;
#X obj 909 192 abs;
#X obj 910 43 r metro;
#X obj 981 160 sin;
#X obj 981 135 * 6.28319;
#X obj 981 115 / 360;
#X obj 981 189 abs;
#X obj 980 42 r metro;
#X obj 841 223 s sinus03;
#X obj 909 224 s sinus0b3;
#X obj 981 221 s sinus0c3;
#X obj 910 83 + 95;
#X obj 841 83 + 50;
#X obj 980 78 + 140;
#X obj 636 89 + 80;
#X obj 706 86 + 125;
#X text 840 19 stripe 3;
#X text 35 23 stripe 0;
#X text 296 27 stripe 1;
#X text 564 26 stripe 2;
#X obj 30 358 metro 100;
#X obj 31 302 bng 15 250 50 0 empty empty empty 17 7 0 10 -262144 -1
-1;
#X obj 30 384 float;
#X obj 30 420 s metro;
#X obj 65 404 + 0.5;
#X msg 40 330 stop;
#X obj 1088 160 sin;
#X obj 1088 135 * 6.28319;
#X obj 1088 115 / 360;
#X obj 1088 189 abs;
#X obj 1088 39 r metro;
#X obj 1156 161 sin;
#X obj 1156 136 * 6.28319;
#X obj 1156 116 / 360;
#X obj 1156 190 abs;
#X obj 1157 41 r metro;
#X obj 1228 158 sin;
#X obj 1228 133 * 6.28319;
#X obj 1228 113 / 360;
#X obj 1228 187 abs;
#X obj 1227 40 r metro;
#X text 1087 17 stripe 4;
#X obj 1088 221 s sinus04;
#X obj 1156 222 s sinus0b4;
#X obj 1228 219 s sinus0c4;
#X obj 1088 81 + 75;
#X obj 1157 81 + 115;
#X obj 1227 76 + 160;
#X obj 33 264 r bang;
#X connect 0 0 3 0;
#X connect 1 0 0 0;
#X connect 2 0 1 0;
#X connect 3 0 4 0;
#X connect 5 0 2 0;
#X connect 6 0 9 0;
#X connect 7 0 6 0;
#X connect 8 0 7 0;
#X connect 9 0 11 0;
#X connect 10 0 19 0;
#X connect 12 0 15 0;
#X connect 13 0 12 0;
#X connect 14 0 13 0;
#X connect 15 0 18 0;
#X connect 16 0 17 0;
#X connect 17 0 14 0;
#X connect 19 0 8 0;
#X connect 20 0 23 0;
#X connect 21 0 20 0;
#X connect 22 0 21 0;
#X connect 23 0 35 0;
#X connect 24 0 56 0;
#X connect 25 0 28 0;
#X connect 26 0 25 0;
#X connect 27 0 26 0;
#X connect 28 0 36 0;
#X connect 29 0 57 0;
#X connect 30 0 33 0;
#X connect 31 0 30 0;
#X connect 32 0 31 0;
#X connect 33 0 37 0;
#X connect 34 0 58 0;
#X connect 38 0 41 0;
#X connect 39 0 38 0;
#X connect 40 0 39 0;
#X connect 41 0 53 0;
#X connect 42 0 59 0;
#X connect 43 0 46 0;
#X connect 44 0 43 0;
#X connect 45 0 44 0;
#X connect 46 0 54 0;
#X connect 47 0 81 0;
#X connect 48 0 51 0;
#X connect 49 0 48 0;
#X connect 50 0 49 0;
#X connect 51 0 55 0;
#X connect 52 0 82 0;
#X connect 56 0 22 0;
#X connect 57 0 27 0;
#X connect 58 0 32 0;
#X connect 59 0 40 0;
#X connect 60 0 63 0;
#X connect 61 0 60 0;
#X connect 62 0 61 0;
#X connect 63 0 75 0;
#X connect 64 0 79 0;
#X connect 65 0 68 0;
#X connect 66 0 65 0;
#X connect 67 0 66 0;
#X connect 68 0 76 0;
#X connect 69 0 78 0;
#X connect 70 0 73 0;
#X connect 71 0 70 0;
#X connect 72 0 71 0;
#X connect 73 0 77 0;
#X connect 74 0 80 0;
#X connect 78 0 67 0;
#X connect 79 0 62 0;
#X connect 80 0 72 0;
#X connect 81 0 45 0;
#X connect 82 0 50 0;
#X connect 87 0 89 0;
#X connect 88 0 87 0;
#X connect 89 0 90 0;
#X connect 89 0 91 0;
#X connect 91 0 89 1;
#X connect 92 0 87 0;
#X connect 93 0 96 0;
#X connect 94 0 93 0;
#X connect 95 0 94 0;
#X connect 96 0 109 0;
#X connect 97 0 112 0;
#X connect 98 0 101 0;
#X connect 99 0 98 0;
#X connect 100 0 99 0;
#X connect 101 0 110 0;
#X connect 102 0 113 0;
#X connect 103 0 106 0;
#X connect 104 0 103 0;
#X connect 105 0 104 0;
#X connect 106 0 111 0;
#X connect 107 0 114 0;
#X connect 112 0 95 0;
#X connect 113 0 100 0;
#X connect 114 0 105 0;
#X connect 115 0 88 0;
#X restore 57 130 pd sinus;
#N canvas 134 137 1604 775 stripes 0;
#X obj 79 196 pix_texture;
#X obj 79 165 colorRGB 0 1 0;
#X obj 121 314 + 0.1;
#X obj 214 199 pix_texture;
#X obj 214 168 colorRGB 0 1 0;
#X obj 214 137 gemhead;
#X obj 77 136 gemhead;
#X obj 92 63 r sinus0;
#X obj 353 200 pix_texture;
#X obj 353 169 colorRGB 0 1 0;
#X obj 353 138 gemhead;
#X obj 486 198 pix_texture;
#X obj 486 167 colorRGB 0 1 0;
#X obj 486 136 gemhead;
#X obj 115 85 r sinus0b;
#X obj 138 105 r sinus0c;
#X obj 122 283 / 10;
#X obj 227 65 r sinus01;
#X obj 250 90 r sinus0b1;
#X obj 273 114 r sinus0c1;
#X obj 253 317 + 0.08;
#X obj 395 318 + 0.11;
#X obj 254 285 / 10;
#X obj 529 285 / 10;
#X obj 396 287 / 10;
#X obj 527 318 + 0.06;
#X obj 371 65 r sinus02;
#X obj 392 87 r sinus0b2;
#X obj 410 109 r sinus0c2;
#X obj 395 259 r sinus02;
#X obj 503 57 r sinus03;
#X obj 529 82 r sinus0b3;
#X obj 550 108 r sinus0c3;
#X obj 79 342 rectangle 0.2 4;
#X obj 210 343 rectangle 0.2 4;
#X obj 352 348 rectangle 0.2 4;
#X obj 484 347 rectangle 0.2 4;
#X obj 635 199 pix_texture;
#X obj 635 168 colorRGB 0 1 0;
#X obj 635 137 gemhead;
#X obj 678 286 / 10;
#X obj 676 319 + 0.06;
#X obj 633 346 rectangle 0.2 4;
#X obj 652 58 r sinus04;
#X obj 678 83 r sinus0b4;
#X obj 699 109 r sinus0c4;
#X text 492 6 stripe 3;
#X text 218 7 stripe 1;
#X text 361 7 stripe 2;
#X text 630 5 stripe 4;
#X obj 487 228 translate 1.5 -1 0 0;
#X obj 79 224 translate 2.6 -1 0 0;
#X obj 210 228 translate 2.2 -1 0 0;
#X obj 352 230 translate 1.9 -1 0 0;
#X obj 636 229 translate 1.2 -1 0 0;
#X obj 121 255 r sinus0c;
#X obj 256 259 r sinus0;
#X obj 529 257 r sinus0c;
#X obj 678 258 r sinus0c2;
#X text 96 6 stripe 0;
#X text 97 38 2.6;
#X text 230 41 2.2;
#X text 374 36 1.9;
#X text 499 34 1.5;
#X text 645 33 1.2;
#X obj 780 201 pix_texture;
#X obj 780 170 colorRGB 0 1 0;
#X obj 822 319 + 0.1;
#X obj 915 204 pix_texture;
#X obj 915 173 colorRGB 0 1 0;
#X obj 915 142 gemhead;
#X obj 778 141 gemhead;
#X obj 793 68 r sinus0;
#X obj 1054 205 pix_texture;
#X obj 1054 174 colorRGB 0 1 0;
#X obj 1054 143 gemhead;
#X obj 1187 203 pix_texture;
#X obj 1187 172 colorRGB 0 1 0;
#X obj 1187 141 gemhead;
#X obj 816 90 r sinus0b;
#X obj 839 110 r sinus0c;
#X obj 823 288 / 10;
#X obj 928 70 r sinus01;
#X obj 951 95 r sinus0b1;
#X obj 974 119 r sinus0c1;
#X obj 954 322 + 0.08;
#X obj 1096 323 + 0.11;
#X obj 955 290 / 10;
#X obj 1230 290 / 10;
#X obj 1097 292 / 10;
#X obj 1228 323 + 0.06;
#X obj 1072 70 r sinus02;
#X obj 1093 92 r sinus0b2;
#X obj 1111 114 r sinus0c2;
#X obj 1204 62 r sinus03;
#X obj 1230 87 r sinus0b3;
#X obj 1251 113 r sinus0c3;
#X obj 780 347 rectangle 0.2 4;
#X obj 911 348 rectangle 0.2 4;
#X obj 1053 353 rectangle 0.2 4;
#X obj 1185 352 rectangle 0.2 4;
#X obj 1336 204 pix_texture;
#X obj 1336 173 colorRGB 0 1 0;
#X obj 1336 142 gemhead;
#X obj 1379 291 / 10;
#X obj 1377 324 + 0.06;
#X obj 1334 351 rectangle 0.2 4;
#X obj 1353 63 r sinus04;
#X obj 1379 88 r sinus0b4;
#X obj 1400 114 r sinus0c4;
#X text 1193 11 stripe 3;
#X text 919 12 stripe 1;
#X text 1062 12 stripe 2;
#X text 1331 10 stripe 4;
#X obj 822 260 r sinus0c;
#X text 797 11 stripe 0;
#X obj 911 233 translate 0.9 -1 0 0;
#X obj 1053 235 translate 0.5 -1 0 0;
#X obj 779 229 translate 0.2 -1 0 0;
#X obj 1188 233 translate -0.1 -1 0 0;
#X obj 1337 234 translate -0.4 -1 0 0;
#X obj 957 264 r sinus0b1;
#X obj 1096 264 r sinus0c2;
#X obj 1231 262 r sinus0;
#X obj 1379 263 r sinus0c4;
#X text 798 43 0.2;
#X text 931 46 0.9;
#X text 1075 41 0.5;
#X text 1199 39 -0.1;
#X text 1346 38 -0.4;
#X obj 69 590 pix_texture;
#X obj 69 559 colorRGB 0 1 0;
#X obj 111 708 + 0.1;
#X obj 204 593 pix_texture;
#X obj 204 562 colorRGB 0 1 0;
#X obj 204 531 gemhead;
#X obj 67 530 gemhead;
#X obj 82 457 r sinus0;
#X obj 343 594 pix_texture;
#X obj 343 563 colorRGB 0 1 0;
#X obj 343 532 gemhead;
#X obj 476 592 pix_texture;
#X obj 476 561 colorRGB 0 1 0;
#X obj 476 530 gemhead;
#X obj 128 499 r sinus0c;
#X obj 112 677 / 10;
#X obj 217 459 r sinus01;
#X obj 249 497 r sinus0b1;
#X obj 261 524 r sinus0c1;
#X obj 243 711 + 0.08;
#X obj 385 712 + 0.11;
#X obj 244 679 / 10;
#X obj 519 679 / 10;
#X obj 386 681 / 10;
#X obj 517 712 + 0.06;
#X obj 361 459 r sinus02;
#X obj 375 482 r sinus0b2;
#X obj 400 503 r sinus0c2;
#X obj 493 451 r sinus03;
#X obj 515 474 r sinus0b3;
#X obj 540 502 r sinus0c3;
#X obj 69 736 rectangle 0.2 4;
#X obj 200 737 rectangle 0.2 4;
#X obj 342 742 rectangle 0.2 4;
#X obj 474 741 rectangle 0.2 4;
#X obj 625 593 pix_texture;
#X obj 625 562 colorRGB 0 1 0;
#X obj 625 531 gemhead;
#X obj 668 680 / 10;
#X obj 666 713 + 0.06;
#X obj 623 740 rectangle 0.2 4;
#X obj 642 452 r sinus04;
#X obj 691 521 r sinus0c4;
#X text 482 400 stripe 3;
#X text 208 401 stripe 1;
#X text 351 401 stripe 2;
#X text 620 399 stripe 4;
#X text 86 400 stripe 0;
#X obj 111 649 r sinus0b3;
#X obj 246 653 r sinus0b4;
#X obj 385 653 r sinus01;
#X obj 519 651 r sinus0b3;
#X obj 477 621 translate -1.1 -1 0 0;
#X obj 668 652 r sinus0c;
#X obj 201 621 translate -1.5 -1 0 0;
#X obj 347 624 translate -0.8 -1 0 0;
#X obj 69 618 translate -2.1 -1 0 0;
#X obj 627 622 translate -1.9 -1 0 0;
#X obj 788 599 pix_texture;
#X obj 788 568 colorRGB 0 1 0;
#X obj 830 717 + 0.1;
#X obj 923 602 pix_texture;
#X obj 923 571 colorRGB 0 1 0;
#X obj 923 540 gemhead;
#X obj 786 539 gemhead;
#X obj 801 466 r sinus0;
#X obj 1062 603 pix_texture;
#X obj 1062 572 colorRGB 0 1 0;
#X obj 1062 541 gemhead;
#X obj 1195 601 pix_texture;
#X obj 1195 570 colorRGB 0 1 0;
#X obj 1195 539 gemhead;
#X obj 824 488 r sinus0b;
#X obj 847 508 r sinus0c;
#X obj 831 686 / 10;
#X obj 936 468 r sinus01;
#X obj 959 493 r sinus0b1;
#X obj 982 517 r sinus0c1;
#X obj 962 720 + 0.08;
#X obj 1104 721 + 0.11;
#X obj 963 688 / 10;
#X obj 1238 688 / 10;
#X obj 1105 690 / 10;
#X obj 1236 721 + 0.06;
#X obj 1080 468 r sinus02;
#X obj 1101 490 r sinus0b2;
#X obj 1119 512 r sinus0c2;
#X obj 1212 460 r sinus03;
#X obj 1238 485 r sinus0b3;
#X obj 1259 511 r sinus0c3;
#X obj 788 745 rectangle 0.2 4;
#X obj 919 746 rectangle 0.2 4;
#X obj 1061 751 rectangle 0.2 4;
#X obj 1193 750 rectangle 0.2 4;
#X obj 1344 602 pix_texture;
#X obj 1344 571 colorRGB 0 1 0;
#X obj 1344 540 gemhead;
#X obj 1387 689 / 10;
#X obj 1385 722 + 0.06;
#X obj 1342 749 rectangle 0.2 4;
#X obj 1361 461 r sinus04;
#X obj 1387 486 r sinus0b4;
#X obj 1408 512 r sinus0c4;
#X text 1201 409 stripe 3;
#X text 927 410 stripe 1;
#X text 1070 410 stripe 2;
#X text 1339 408 stripe 4;
#X text 805 409 stripe 0;
#X text 806 441 2.6;
#X text 939 444 2.2;
#X text 1083 439 1.9;
#X text 1208 437 1.5;
#X text 1354 436 1.2;
#X text 489 428 -1.1;
#X text 364 430 -0.8;
#X text 220 435 -1.5;
#X text 87 432 -2.1;
#X obj 788 627 translate -2.9 -1 0 0;
#X obj 1196 630 translate -3.2 -1 0 0;
#X obj 920 630 translate -2.5 -1 0 0;
#X obj 1067 633 translate -3.5 -1 0 0;
#X obj 1346 631 translate -3.9 -1 0 0;
#X obj 830 658 r sinus0c3;
#X obj 965 662 r sinus0b4;
#X obj 1104 662 r sinus0b1;
#X obj 1238 660 r sinus0c3;
#X obj 1387 661 r sinus0;
#X obj 125 499 r sinus0b;
#X text 655 447 -1.9;
#X text 107 452 comment;
#X text 240 455 comment;
#X text 384 450 comment;
#X text 509 448 comment;
#X obj 668 477 r sinus0b4;
#X obj 109 480 r sinus0b;
#X connect 0 0 51 0;
#X connect 1 0 0 0;
#X connect 2 0 33 1;
#X connect 3 0 52 0;
#X connect 4 0 3 0;
#X connect 5 0 4 0;
#X connect 6 0 1 0;
#X connect 7 0 1 1;
#X connect 8 0 53 0;
#X connect 9 0 8 0;
#X connect 10 0 9 0;
#X connect 11 0 50 0;
#X connect 12 0 11 0;
#X connect 13 0 12 0;
#X connect 14 0 1 2;
#X connect 15 0 1 3;
#X connect 16 0 2 0;
#X connect 17 0 4 1;
#X connect 18 0 4 2;
#X connect 19 0 4 3;
#X connect 20 0 34 1;
#X connect 21 0 35 1;
#X connect 22 0 20 0;
#X connect 23 0 25 0;
#X connect 24 0 21 0;
#X connect 25 0 36 1;
#X connect 26 0 9 1;
#X connect 27 0 9 2;
#X connect 28 0 9 3;
#X connect 29 0 24 0;
#X connect 30 0 12 1;
#X connect 31 0 12 2;
#X connect 32 0 12 3;
#X connect 37 0 54 0;
#X connect 38 0 37 0;
#X connect 39 0 38 0;
#X connect 40 0 41 0;
#X connect 41 0 42 1;
#X connect 43 0 38 1;
#X connect 44 0 38 2;
#X connect 45 0 38 3;
#X connect 50 0 36 0;
#X connect 51 0 33 0;
#X connect 52 0 34 0;
#X connect 53 0 35 0;
#X connect 54 0 42 0;
#X connect 55 0 16 0;
#X connect 56 0 22 0;
#X connect 57 0 23 0;
#X connect 58 0 40 0;
#X connect 65 0 118 0;
#X connect 66 0 65 0;
#X connect 67 0 97 1;
#X connect 68 0 116 0;
#X connect 69 0 68 0;
#X connect 70 0 69 0;
#X connect 71 0 66 0;
#X connect 72 0 66 1;
#X connect 73 0 117 0;
#X connect 74 0 73 0;
#X connect 75 0 74 0;
#X connect 76 0 119 0;
#X connect 77 0 76 0;
#X connect 78 0 77 0;
#X connect 79 0 66 2;
#X connect 80 0 66 3;
#X connect 81 0 67 0;
#X connect 82 0 69 1;
#X connect 83 0 69 2;
#X connect 84 0 69 3;
#X connect 85 0 98 1;
#X connect 86 0 99 1;
#X connect 87 0 85 0;
#X connect 88 0 90 0;
#X connect 89 0 86 0;
#X connect 90 0 100 1;
#X connect 91 0 74 1;
#X connect 92 0 74 2;
#X connect 93 0 74 3;
#X connect 94 0 77 1;
#X connect 95 0 77 2;
#X connect 96 0 77 3;
#X connect 101 0 120 0;
#X connect 102 0 101 0;
#X connect 103 0 102 0;
#X connect 104 0 105 0;
#X connect 105 0 106 1;
#X connect 107 0 102 1;
#X connect 108 0 102 2;
#X connect 109 0 102 3;
#X connect 114 0 81 0;
#X connect 116 0 98 0;
#X connect 117 0 99 0;
#X connect 118 0 97 0;
#X connect 119 0 100 0;
#X connect 120 0 106 0;
#X connect 121 0 87 0;
#X connect 122 0 89 0;
#X connect 123 0 88 0;
#X connect 124 0 104 0;
#X connect 130 0 186 0;
#X connect 131 0 130 0;
#X connect 132 0 161 1;
#X connect 133 0 184 0;
#X connect 134 0 133 0;
#X connect 135 0 134 0;
#X connect 136 0 131 0;
#X connect 137 0 131 1;
#X connect 138 0 185 0;
#X connect 139 0 138 0;
#X connect 140 0 139 0;
#X connect 141 0 182 0;
#X connect 142 0 141 0;
#X connect 143 0 142 0;
#X connect 144 0 131 3;
#X connect 145 0 132 0;
#X connect 146 0 134 1;
#X connect 147 0 134 2;
#X connect 148 0 134 3;
#X connect 149 0 162 1;
#X connect 150 0 163 1;
#X connect 151 0 149 0;
#X connect 152 0 154 0;
#X connect 153 0 150 0;
#X connect 154 0 164 1;
#X connect 155 0 139 1;
#X connect 156 0 139 2;
#X connect 157 0 139 3;
#X connect 158 0 142 1;
#X connect 159 0 142 2;
#X connect 160 0 142 3;
#X connect 165 0 187 0;
#X connect 166 0 165 0;
#X connect 167 0 166 0;
#X connect 168 0 169 0;
#X connect 169 0 170 1;
#X connect 171 0 166 1;
#X connect 172 0 166 3;
#X connect 178 0 145 0;
#X connect 179 0 151 0;
#X connect 180 0 153 0;
#X connect 181 0 152 0;
#X connect 182 0 164 0;
#X connect 183 0 168 0;
#X connect 184 0 162 0;
#X connect 185 0 163 0;
#X connect 186 0 161 0;
#X connect 187 0 170 0;
#X connect 188 0 247 0;
#X connect 189 0 188 0;
#X connect 190 0 220 1;
#X connect 191 0 249 0;
#X connect 192 0 191 0;
#X connect 193 0 192 0;
#X connect 194 0 189 0;
#X connect 195 0 189 1;
#X connect 196 0 250 0;
#X connect 197 0 196 0;
#X connect 198 0 197 0;
#X connect 199 0 248 0;
#X connect 200 0 199 0;
#X connect 201 0 200 0;
#X connect 202 0 189 2;
#X connect 203 0 189 3;
#X connect 204 0 190 0;
#X connect 205 0 192 1;
#X connect 206 0 192 2;
#X connect 207 0 192 3;
#X connect 208 0 221 1;
#X connect 209 0 222 1;
#X connect 210 0 208 0;
#X connect 211 0 213 0;
#X connect 212 0 209 0;
#X connect 213 0 223 1;
#X connect 214 0 197 1;
#X connect 215 0 197 2;
#X connect 216 0 197 3;
#X connect 217 0 200 1;
#X connect 218 0 200 2;
#X connect 219 0 200 3;
#X connect 224 0 251 0;
#X connect 225 0 224 0;
#X connect 226 0 225 0;
#X connect 227 0 228 0;
#X connect 228 0 229 1;
#X connect 230 0 225 1;
#X connect 231 0 225 2;
#X connect 232 0 225 3;
#X connect 247 0 220 0;
#X connect 248 0 223 0;
#X connect 249 0 221 0;
#X connect 250 0 222 0;
#X connect 251 0 229 0;
#X connect 252 0 204 0;
#X connect 253 0 210 0;
#X connect 254 0 212 0;
#X connect 255 0 211 0;
#X connect 256 0 227 0;
#X connect 263 0 166 2;
#X connect 264 0 131 2;
#X restore 57 158 pd stripes;
#X obj 944 55 r sinus0c4;
#X text 273 -15 x-Postition;
#X text 55 106 Subpatches;
#X text 16 211 Stripes controled by movement detection;
#X text 125 157 more handmade stripes;
#X text 116 126 for changing colors and width;
#X obj 106 306 r bang;
#X obj -68 108 sel 1;
#X obj 64 269 unpack 0 1;
#X obj -100 51 unpack 1;
#X text 113 251 X size;
#X obj 41 -111 loadbang;
#X msg 87 -70 fullscreen 1 \, topmost 1 \, buffer 2 \, dimen 1440 900
\, perspec -0.6 0.6 -1 1 1 4 \, create \, 1;
#X obj -112 337 netsend;
#X msg -86 286 connect localhost 5005;
#X obj -103 252 loadbang;
#X msg -144 227 send \$1;
#X obj -145 0 netreceive 3003;
#X obj -48 404 sel 0;
#X obj -135 362 bng 15 250 50 0 empty empty empty 17 7 0 10 -262144
-1 -1;
#X floatatom -99 379 5 0 0 0 - - -;
#X connect 0 0 60 0;
#X connect 2 0 5 1;
#X connect 3 0 5 2;
#X connect 4 0 5 3;
#X connect 5 0 0 0;
#X connect 6 0 49 1;
#X connect 7 0 59 0;
#X connect 8 0 11 1;
#X connect 9 0 11 2;
#X connect 10 0 11 3;
#X connect 11 0 7 0;
#X connect 12 0 11 0;
#X connect 13 0 5 0;
#X connect 14 0 2 0;
#X connect 15 0 58 0;
#X connect 16 0 19 1;
#X connect 17 0 19 2;
#X connect 18 0 19 3;
#X connect 19 0 15 0;
#X connect 20 0 19 0;
#X connect 21 0 61 0;
#X connect 22 0 25 1;
#X connect 23 0 25 2;
#X connect 24 0 25 3;
#X connect 25 0 21 0;
#X connect 26 0 25 0;
#X connect 27 0 3 0;
#X connect 28 0 4 0;
#X connect 29 0 30 0;
#X connect 30 0 6 0;
#X connect 31 0 8 0;
#X connect 32 0 9 0;
#X connect 33 0 10 0;
#X connect 34 0 50 1;
#X connect 35 0 51 1;
#X connect 36 0 34 0;
#X connect 37 0 39 0;
#X connect 38 0 35 0;
#X connect 39 0 52 1;
#X connect 40 0 16 0;
#X connect 41 0 17 0;
#X connect 42 0 18 0;
#X connect 43 0 38 0;
#X connect 44 0 22 0;
#X connect 45 0 23 0;
#X connect 46 0 24 0;
#X connect 47 0 36 0;
#X connect 48 0 37 0;
#X connect 53 0 1 0;
#X connect 54 0 1 0;
#X connect 56 0 119 1;
#X connect 56 0 128 0;
#X connect 56 0 131 0;
#X connect 57 0 142 0;
#X connect 58 0 51 0;
#X connect 59 0 50 0;
#X connect 60 0 49 0;
#X connect 61 0 52 0;
#X connect 66 0 78 0;
#X connect 67 0 70 1;
#X connect 68 0 70 2;
#X connect 69 0 70 3;
#X connect 70 0 66 0;
#X connect 71 0 70 0;
#X connect 72 0 73 0;
#X connect 73 0 74 1;
#X connect 75 0 67 0;
#X connect 76 0 68 0;
#X connect 77 0 72 0;
#X connect 78 0 74 0;
#X connect 87 0 119 0;
#X connect 88 0 87 0;
#X connect 89 0 108 1;
#X connect 90 0 117 0;
#X connect 91 0 90 0;
#X connect 92 0 88 1;
#X connect 93 0 118 0;
#X connect 94 0 93 0;
#X connect 95 0 88 2;
#X connect 96 0 88 3;
#X connect 97 0 89 0;
#X connect 98 0 91 1;
#X connect 99 0 91 2;
#X connect 100 0 91 3;
#X connect 101 0 109 1;
#X connect 102 0 110 1;
#X connect 103 0 101 0;
#X connect 104 0 102 0;
#X connect 105 0 94 1;
#X connect 106 0 94 2;
#X connect 107 0 94 3;
#X connect 114 0 97 0;
#X connect 115 0 103 0;
#X connect 116 0 104 0;
#X connect 117 0 109 0;
#X connect 118 0 110 0;
#X connect 119 0 108 0;
#X connect 123 0 88 0;
#X connect 124 0 127 0;
#X connect 125 0 124 0;
#X connect 126 0 127 1;
#X connect 127 0 56 0;
#X connect 128 0 117 1;
#X connect 129 0 91 0;
#X connect 130 0 94 0;
#X connect 131 0 118 1;
#X connect 134 0 69 0;
#X connect 140 0 126 0;
#X connect 141 0 53 0;
#X connect 141 1 146 0;
#X connect 142 0 125 0;
#X connect 143 0 141 0;
#X connect 143 0 150 0;
#X connect 143 0 153 0;
#X connect 145 0 146 0;
#X connect 146 0 1 0;
#X connect 146 0 86 0;
#X connect 147 0 154 0;
#X connect 148 0 147 0;
#X connect 149 0 148 0;
#X connect 150 0 147 0;
#X connect 151 0 143 0;
#X connect 152 0 148 0;
#X connect 153 0 154 0;
#X connect 154 0 152 0;
