#N canvas 570 0 1232 1010 10;
#X obj 563 277 pix_texture;
#X msg 12 -11 create \, 1;
#X obj 11 21 gemwin;
#X obj 580 78 vsl 15 128 0 1 0 0 empty empty empty 0 -9 0 10 -258113
-1 -1 11055 1;
#X obj 603 79 vsl 15 128 0 1 0 0 empty empty empty 0 -9 0 10 -4034
-1 -1 12237 1;
#X obj 649 77 vsl 15 128 0 1 0 0 empty empty empty 0 -9 0 10 -262144
-1 -1 0 1;
#X obj 626 79 vsl 15 128 0 1 0 0 empty empty empty 0 -9 0 10 -4160
-1 -1 6251 1;
#X obj 19 84 metro 100;
#X obj 20 51 bng 15 250 50 0 empty empty empty 17 7 0 10 -262144 -1
-1;
#X obj 19 110 float;
#X obj 20 726 sin;
#X floatatom 20 640 0 0 0 0 - - -;
#X floatatom 20 753 0 0 0 0 - - -;
#X obj 20 680 * 6.28319;
#X obj 20 660 / 360;
#X floatatom 20 700 0 0 0 0 - - -;
#X obj 20 781 abs;
#X floatatom 20 808 0 0 0 0 - - -;
#X obj 563 246 colorRGB 0 1 0;
#X floatatom 586 430 5 0 0 0 - - -;
#X obj 56 130 + 0.5;
#X obj 563 463 cuboid 0.2 4;
#X obj 585 395 + 0.1;
#X obj 698 280 pix_texture;
#X obj 715 81 vsl 15 128 0 1 0 0 empty empty empty 0 -9 0 10 -258113
-1 -1 12296 1;
#X obj 738 82 vsl 15 128 0 1 0 0 empty empty empty 0 -9 0 10 -4034
-1 -1 10941 1;
#X obj 784 80 vsl 15 128 0 1 0 0 empty empty empty 0 -9 0 10 -262144
-1 -1 0 1;
#X obj 761 82 vsl 15 128 0 1 0 0 empty empty empty 0 -9 0 10 -4160
-1 -1 993 1;
#X obj 698 249 colorRGB 0 1 0;
#X floatatom 721 433 5 0 0 0 - - -;
#X obj 698 466 cuboid 0.2 4;
#X obj 698 218 gemhead;
#X obj 561 217 gemhead;
#X obj 20 835 s sinus0;
#X obj 580 3 r sinus0;
#X obj 837 281 pix_texture;
#X obj 854 82 vsl 15 128 0 1 0 0 empty empty empty 0 -9 0 10 -258113
-1 -1 12641 1;
#X obj 877 83 vsl 15 128 0 1 0 0 empty empty empty 0 -9 0 10 -4034
-1 -1 8076 1;
#X obj 923 81 vsl 15 128 0 1 0 0 empty empty empty 0 -9 0 10 -262144
-1 -1 0 1;
#X obj 900 83 vsl 15 128 0 1 0 0 empty empty empty 0 -9 0 10 -4160
-1 -1 1220 1;
#X obj 837 250 colorRGB 0 1 0;
#X floatatom 860 434 5 0 0 0 - - -;
#X obj 837 467 cuboid 0.2 4;
#X obj 837 219 gemhead;
#X obj 21 146 s metro;
#X obj 20 556 r metro;
#X obj 970 279 pix_texture;
#X obj 987 80 vsl 15 128 0 1 0 0 empty empty empty 0 -9 0 10 -258113
-1 -1 11895 1;
#X obj 1010 81 vsl 15 128 0 1 0 0 empty empty empty 0 -9 0 10 -4034
-1 -1 5264 1;
#X obj 1056 79 vsl 15 128 0 1 0 0 empty empty empty 0 -9 0 10 -262144
-1 -1 0 1;
#X obj 1033 81 vsl 15 128 0 1 0 0 empty empty empty 0 -9 0 10 -4160
-1 -1 4451 1;
#X obj 970 248 colorRGB 0 1 0;
#X floatatom 993 432 5 0 0 0 - - -;
#X obj 970 465 cuboid 0.2 4;
#X obj 970 217 gemhead;
#X obj 970 309 translate 2 -1 0 0;
#X obj 88 727 sin;
#X floatatom 88 641 0 0 0 0 - - -;
#X floatatom 88 754 0 0 0 0 - - -;
#X obj 88 681 * 6.28319;
#X obj 88 661 / 360;
#X floatatom 88 701 0 0 0 0 - - -;
#X obj 88 782 abs;
#X floatatom 88 809 0 0 0 0 - - -;
#X obj 89 558 r metro;
#X obj 88 836 s sinus0b;
#X obj 603 25 r sinus0b;
#X obj 182 722 sin;
#X floatatom 182 636 0 0 0 0 - - -;
#X floatatom 182 749 0 0 0 0 - - -;
#X obj 182 676 * 6.28319;
#X obj 182 656 / 360;
#X floatatom 182 696 0 0 0 0 - - -;
#X obj 182 777 abs;
#X floatatom 182 804 0 0 0 0 - - -;
#X obj 183 553 r metro;
#X msg 204 583 90;
#X obj 183 607 + 90;
#X obj 182 831 s sinus0c;
#X obj 626 45 r sinus0c;
#X obj 585 336 r sinus0;
#X msg 112 589 45;
#X obj 89 615 + 45;
#X obj 586 364 / 10;
#X obj 286 727 sin;
#X floatatom 286 641 0 0 0 0 - - -;
#X floatatom 286 754 0 0 0 0 - - -;
#X obj 286 681 * 6.28319;
#X obj 286 661 / 360;
#X floatatom 286 701 0 0 0 0 - - -;
#X obj 286 782 abs;
#X floatatom 286 809 0 0 0 0 - - -;
#X obj 286 557 r metro;
#X obj 354 728 sin;
#X floatatom 354 642 0 0 0 0 - - -;
#X floatatom 354 755 0 0 0 0 - - -;
#X obj 354 682 * 6.28319;
#X obj 354 662 / 360;
#X floatatom 354 702 0 0 0 0 - - -;
#X obj 354 783 abs;
#X floatatom 354 810 0 0 0 0 - - -;
#X obj 355 559 r metro;
#X obj 448 723 sin;
#X floatatom 448 637 0 0 0 0 - - -;
#X floatatom 448 750 0 0 0 0 - - -;
#X obj 448 677 * 6.28319;
#X obj 448 657 / 360;
#X floatatom 448 697 0 0 0 0 - - -;
#X obj 448 778 abs;
#X floatatom 448 805 0 0 0 0 - - -;
#X obj 449 554 r metro;
#X obj 286 836 s sinus01;
#X obj 354 837 s sinus0b1;
#X obj 448 832 s sinus0c1;
#X obj 715 5 r sinus01;
#X obj 738 30 r sinus0b1;
#X obj 761 54 r sinus0c1;
#X obj 720 398 + 0.08;
#X obj 698 310 translate 2.8 -1 0 0;
#X obj 859 399 + 0.11;
#X obj 721 366 / 10;
#X obj 993 366 / 10;
#X obj 860 368 / 10;
#X obj 991 399 + 0.06;
#X obj 556 727 sin;
#X floatatom 556 641 0 0 0 0 - - -;
#X floatatom 556 754 0 0 0 0 - - -;
#X obj 556 681 * 6.28319;
#X obj 556 661 / 360;
#X floatatom 556 701 0 0 0 0 - - -;
#X obj 556 782 abs;
#X floatatom 556 809 0 0 0 0 - - -;
#X obj 556 557 r metro;
#X obj 624 728 sin;
#X floatatom 624 642 0 0 0 0 - - -;
#X floatatom 624 755 0 0 0 0 - - -;
#X obj 624 682 * 6.28319;
#X obj 624 662 / 360;
#X floatatom 624 702 0 0 0 0 - - -;
#X obj 624 783 abs;
#X floatatom 624 810 0 0 0 0 - - -;
#X obj 625 559 r metro;
#X obj 718 723 sin;
#X floatatom 718 637 0 0 0 0 - - -;
#X floatatom 718 750 0 0 0 0 - - -;
#X obj 718 677 * 6.28319;
#X obj 718 657 / 360;
#X floatatom 718 697 0 0 0 0 - - -;
#X obj 718 778 abs;
#X floatatom 718 805 0 0 0 0 - - -;
#X obj 719 554 r metro;
#X obj 556 836 s sinus02;
#X obj 624 837 s sinus0b2;
#X obj 718 832 s sinus0c2;
#X obj 852 5 r sinus02;
#X obj 874 27 r sinus0b2;
#X obj 885 49 r sinus0c2;
#X obj 859 340 r sinus02;
#X obj 292 616 + 15;
#X obj 353 616 + 60;
#X obj 449 608 + 115;
#X obj 562 616 + 35;
#X obj 830 721 sin;
#X floatatom 830 635 0 0 0 0 - - -;
#X floatatom 830 748 0 0 0 0 - - -;
#X obj 830 675 * 6.28319;
#X obj 830 655 / 360;
#X floatatom 830 695 0 0 0 0 - - -;
#X obj 830 776 abs;
#X floatatom 830 803 0 0 0 0 - - -;
#X obj 830 551 r metro;
#X obj 898 722 sin;
#X floatatom 898 636 0 0 0 0 - - -;
#X floatatom 898 749 0 0 0 0 - - -;
#X obj 898 676 * 6.28319;
#X obj 898 656 / 360;
#X floatatom 898 696 0 0 0 0 - - -;
#X obj 898 777 abs;
#X floatatom 898 804 0 0 0 0 - - -;
#X obj 899 553 r metro;
#X obj 992 717 sin;
#X floatatom 992 631 0 0 0 0 - - -;
#X floatatom 992 744 0 0 0 0 - - -;
#X obj 992 671 * 6.28319;
#X obj 992 651 / 360;
#X floatatom 992 691 0 0 0 0 - - -;
#X obj 992 772 abs;
#X floatatom 992 799 0 0 0 0 - - -;
#X obj 993 548 r metro;
#X obj 830 830 s sinus03;
#X obj 898 831 s sinus0b3;
#X obj 992 826 s sinus0c3;
#X obj 991 -3 r sinus03;
#X obj 1017 22 r sinus0b3;
#X obj 1038 48 r sinus0c3;
#X obj 899 610 + 95;
#X obj 836 610 + 50;
#X obj 991 603 + 140;
#X obj 625 616 + 80;
#X obj 716 609 + 125;
#X obj 723 340 r sinus0c;
#X obj 563 305 translate 3.4 -1 0 0;
#X obj 837 311 translate 2.4 -1 0 0;
#X obj 993 338 r sinus0c1;
#X text 622 425 width;
#X text 757 428 width;
#X text 896 429 width;
#X text 1029 427 width;
#X connect 0 0 201 0;
#X connect 1 0 2 0;
#X connect 2 0 1 0;
#X connect 3 0 18 1;
#X connect 4 0 18 2;
#X connect 5 0 18 4;
#X connect 6 0 18 3;
#X connect 7 0 9 0;
#X connect 8 0 7 0;
#X connect 9 0 20 0;
#X connect 9 0 44 0;
#X connect 10 0 12 0;
#X connect 11 0 14 0;
#X connect 12 0 16 0;
#X connect 13 0 15 0;
#X connect 14 0 13 0;
#X connect 15 0 10 0;
#X connect 16 0 17 0;
#X connect 17 0 33 0;
#X connect 18 0 0 0;
#X connect 19 0 21 1;
#X connect 20 0 9 1;
#X connect 22 0 19 0;
#X connect 23 0 118 0;
#X connect 24 0 28 1;
#X connect 25 0 28 2;
#X connect 26 0 28 4;
#X connect 27 0 28 3;
#X connect 28 0 23 0;
#X connect 29 0 30 1;
#X connect 31 0 28 0;
#X connect 32 0 18 0;
#X connect 34 0 3 0;
#X connect 35 0 202 0;
#X connect 36 0 40 1;
#X connect 37 0 40 2;
#X connect 38 0 40 4;
#X connect 39 0 40 3;
#X connect 40 0 35 0;
#X connect 41 0 42 1;
#X connect 43 0 40 0;
#X connect 45 0 11 0;
#X connect 46 0 55 0;
#X connect 47 0 51 1;
#X connect 48 0 51 2;
#X connect 49 0 51 4;
#X connect 50 0 51 3;
#X connect 51 0 46 0;
#X connect 52 0 53 1;
#X connect 54 0 51 0;
#X connect 55 0 53 0;
#X connect 56 0 58 0;
#X connect 57 0 60 0;
#X connect 58 0 62 0;
#X connect 59 0 61 0;
#X connect 60 0 59 0;
#X connect 61 0 56 0;
#X connect 62 0 63 0;
#X connect 63 0 65 0;
#X connect 64 0 82 0;
#X connect 66 0 4 0;
#X connect 67 0 69 0;
#X connect 68 0 71 0;
#X connect 69 0 73 0;
#X connect 70 0 72 0;
#X connect 71 0 70 0;
#X connect 72 0 67 0;
#X connect 73 0 74 0;
#X connect 74 0 78 0;
#X connect 75 0 77 0;
#X connect 76 0 77 1;
#X connect 77 0 68 0;
#X connect 79 0 6 0;
#X connect 80 0 83 0;
#X connect 81 0 82 1;
#X connect 82 0 57 0;
#X connect 83 0 22 0;
#X connect 84 0 86 0;
#X connect 85 0 88 0;
#X connect 86 0 90 0;
#X connect 87 0 89 0;
#X connect 88 0 87 0;
#X connect 89 0 84 0;
#X connect 90 0 91 0;
#X connect 91 0 111 0;
#X connect 92 0 158 0;
#X connect 93 0 95 0;
#X connect 94 0 97 0;
#X connect 95 0 99 0;
#X connect 96 0 98 0;
#X connect 97 0 96 0;
#X connect 98 0 93 0;
#X connect 99 0 100 0;
#X connect 100 0 112 0;
#X connect 101 0 159 0;
#X connect 102 0 104 0;
#X connect 103 0 106 0;
#X connect 104 0 108 0;
#X connect 105 0 107 0;
#X connect 106 0 105 0;
#X connect 107 0 102 0;
#X connect 108 0 109 0;
#X connect 109 0 113 0;
#X connect 110 0 160 0;
#X connect 114 0 24 0;
#X connect 115 0 25 0;
#X connect 116 0 27 0;
#X connect 117 0 29 0;
#X connect 118 0 30 0;
#X connect 119 0 41 0;
#X connect 120 0 117 0;
#X connect 121 0 123 0;
#X connect 122 0 119 0;
#X connect 123 0 52 0;
#X connect 124 0 126 0;
#X connect 125 0 128 0;
#X connect 126 0 130 0;
#X connect 127 0 129 0;
#X connect 128 0 127 0;
#X connect 129 0 124 0;
#X connect 130 0 131 0;
#X connect 131 0 151 0;
#X connect 132 0 161 0;
#X connect 133 0 135 0;
#X connect 134 0 137 0;
#X connect 135 0 139 0;
#X connect 136 0 138 0;
#X connect 137 0 136 0;
#X connect 138 0 133 0;
#X connect 139 0 140 0;
#X connect 140 0 152 0;
#X connect 141 0 198 0;
#X connect 142 0 144 0;
#X connect 143 0 146 0;
#X connect 144 0 148 0;
#X connect 145 0 147 0;
#X connect 146 0 145 0;
#X connect 147 0 142 0;
#X connect 148 0 149 0;
#X connect 149 0 153 0;
#X connect 150 0 199 0;
#X connect 154 0 36 0;
#X connect 155 0 37 0;
#X connect 156 0 39 0;
#X connect 157 0 122 0;
#X connect 158 0 85 0;
#X connect 159 0 94 0;
#X connect 160 0 103 0;
#X connect 161 0 125 0;
#X connect 162 0 164 0;
#X connect 163 0 166 0;
#X connect 164 0 168 0;
#X connect 165 0 167 0;
#X connect 166 0 165 0;
#X connect 167 0 162 0;
#X connect 168 0 169 0;
#X connect 169 0 189 0;
#X connect 170 0 196 0;
#X connect 171 0 173 0;
#X connect 172 0 175 0;
#X connect 173 0 177 0;
#X connect 174 0 176 0;
#X connect 175 0 174 0;
#X connect 176 0 171 0;
#X connect 177 0 178 0;
#X connect 178 0 190 0;
#X connect 179 0 195 0;
#X connect 180 0 182 0;
#X connect 181 0 184 0;
#X connect 182 0 186 0;
#X connect 183 0 185 0;
#X connect 184 0 183 0;
#X connect 185 0 180 0;
#X connect 186 0 187 0;
#X connect 187 0 191 0;
#X connect 188 0 197 0;
#X connect 192 0 47 0;
#X connect 193 0 48 0;
#X connect 194 0 50 0;
#X connect 195 0 172 0;
#X connect 196 0 163 0;
#X connect 197 0 181 0;
#X connect 198 0 134 0;
#X connect 199 0 143 0;
#X connect 200 0 120 0;
#X connect 201 0 21 0;
#X connect 202 0 42 0;
#X connect 203 0 121 0;
