#N canvas 996 99 756 819 10;
#X msg 93 26 create \, 1;
#X msg 116 60 0 \, destroy;
#X obj 338 167 tgl 15 0 empty empty empty 17 7 0 10 -262144 -1 -1 1
1;
#X obj 297 31 gemhead;
#X obj 299 63 pix_video;
#X obj 298 98 pix_rgba;
#X obj 298 137 pix_movement 0.2;
#X obj 298 196 alpha;
#X obj 298 238 pix_texture;
#X obj 298 305 pix_blob 4;
#X obj 90 414 rectangle 4 3;
#X floatatom 380 334 5 0 0 0 - - -;
#X obj 75 110 gemwin;
#X obj 288 385 * 100;
#X obj 347 380 * 100;
#X obj 299 689 netsend 1;
#X floatatom 299 749 5 0 0 0 - - -;
#X obj 395 414 t b b;
#X obj 486 534 bng 15 250 50 0 empty empty empty 17 7 0 10 -262144
-1 -1;
#X floatatom 551 362 5 0 0 0 - - -;
#X floatatom 539 509 5 0 0 0 - - -;
#X msg 517 159 bang;
#X obj 595 265 bng 15 250 50 0 empty empty empty 17 7 0 10 -262144
-1 -1;
#X floatatom 537 311 5 0 0 0 - - -;
#X floatatom 442 271 5 0 0 0 - - -;
#X obj 508 422 <;
#X obj 531 226 metro 500;
#X msg 355 271 alpha;
#X floatatom 413 78 3 0 100 2 threshold - -;
#X obj 412 94 / 2;
#X obj 97 287 rectangle 4 3;
#X connect 0 0 12 0;
#X connect 1 0 12 0;
#X connect 2 0 7 0;
#X connect 3 0 4 0;
#X connect 4 0 5 0;
#X connect 5 0 6 0;
#X connect 6 0 7 0;
#X connect 7 0 8 0;
#X connect 8 0 9 0;
#X connect 8 0 30 0;
#X connect 9 1 13 0;
#X connect 9 2 14 0;
#X connect 9 3 11 0;
#X connect 11 0 17 0;
#X connect 11 0 25 1;
#X connect 15 0 16 0;
#X connect 17 1 15 0;
#X connect 19 0 25 1;
#X connect 21 0 26 0;
#X connect 25 0 20 0;
#X connect 26 0 22 0;
#X connect 26 0 25 0;
#X connect 27 0 9 2;
#X connect 28 0 29 0;
#X connect 29 0 6 1;
