#N canvas 765 73 651 557 10;
#X obj 77 121 gemhead;
#X obj 42 266 pix_texture;
#X obj 134 160 pix_video;
#X text 356 108 <-- get the video camera;
#X text 356 133 <-- convert to grey for easier tracking;
#X text 29 502 render the video of the;
#X text 38 519 frame difference;
#N canvas 354 59 813 594 histogram 1;
#X obj 270 39 inlet;
#X floatatom 452 199 5 0 0 0 - - -;
#X obj 388 526 outlet;
#N canvas 0 4 450 300 high 0;
#X obj 136 88 inlet;
#X obj 141 143 sel 1;
#X floatatom 206 147 5 0 0 0 - - -;
#X obj 206 169 sel 1;
#X obj 205 196 bng 15 250 50 0 empty empty empty 17 7 0 10 -262144
-1 -1;
#X obj 205 227 outlet;
#X connect 0 0 1 0;
#X connect 1 1 2 0;
#X connect 2 0 1 1;
#X connect 2 0 3 0;
#X connect 3 0 4 0;
#X connect 4 0 5 0;
#X restore 464 251 pd high;
#X obj 485 284 bng 15 250 50 0 empty empty empty 17 7 0 10 -262144
-1 -1;
#X obj 222 221 loadbang;
#X msg 222 242 1;
#X obj 223 302 int;
#X obj 259 302 + 1;
#X floatatom 228 348 5 0 0 0 - - -;
#X msg 305 270 0;
#X obj 222 263 metro 500;
#X obj 237 376 sel 5;
#X floatatom 380 442 5 0 0 0 - - -;
#X floatatom 339 121 5 0 0 0 - - -;
#X obj 353 245 sel 0;
#X text 431 113 movement;
#X text 515 114 still;
#X text 203 200 watchdog;
#X msg 414 413 0;
#X msg 309 416 1;
#X obj 373 48 inlet;
#X obj 344 151 expr $f1 \; if ($f1 > 0.1 \, $f2 \, $f3) \;;
#X msg 433 129 0;
#X msg 521 130 1;
#X connect 1 0 3 0;
#X connect 1 0 15 0;
#X connect 3 0 4 0;
#X connect 5 0 6 0;
#X connect 6 0 11 0;
#X connect 7 0 8 0;
#X connect 7 0 9 0;
#X connect 8 0 7 1;
#X connect 9 0 12 0;
#X connect 10 0 7 0;
#X connect 11 0 7 0;
#X connect 12 0 10 0;
#X connect 12 0 20 0;
#X connect 13 0 2 0;
#X connect 14 0 22 0;
#X connect 15 0 10 0;
#X connect 15 0 19 0;
#X connect 19 0 13 0;
#X connect 20 0 13 0;
#X connect 21 0 14 0;
#X connect 22 1 1 0;
#X connect 23 0 22 1;
#X connect 24 0 22 2;
#X restore 66 401 pd histogram;
#X floatatom 209 363 5 0 0 0 - - -;
#X obj 133 233 alpha;
#X obj 156 214 tgl 15 0 empty empty empty 17 7 0 10 -262144 -1 -1 1
1;
#X obj 134 188 pix_movement 0.2;
#X obj 149 132 t a a;
#X msg 153 82 dimen 320 240;
#X msg 175 109 colorspace Grey;
#X msg 221 144 0.1;
#X obj 117 318 pix_blob 4;
#X msg 153 266 4;
#X floatatom 86 363 5 0 0 0 - - -;
#X floatatom 151 365 5 0 0 0 - - -;
#X floatatom 158 442 5 0 0 0 - - -;
#X obj 295 484 netsend;
#X obj 293 369 loadbang;
#X text 356 384;
#X text 356 344;
#X text 380 357;
#X text 381 316;
#X msg 208 470 send \$1;
#X msg 296 407 connect localhost 5001;
#X obj 373 168 loadbang;
#X obj 377 233 gemwin;
#X msg 377 206 create \, 1;
#X text 28 12;
#X connect 0 0 2 0;
#X connect 1 0 16 0;
#X connect 1 0 7 0;
#X connect 2 0 11 0;
#X connect 7 0 20 0;
#X connect 8 0 7 1;
#X connect 9 0 1 0;
#X connect 10 0 9 0;
#X connect 11 0 9 0;
#X connect 12 0 2 0;
#X connect 13 0 12 0;
#X connect 14 0 12 0;
#X connect 15 0 11 1;
#X connect 16 1 18 0;
#X connect 16 2 19 0;
#X connect 16 3 8 0;
#X connect 17 0 16 1;
#X connect 20 0 27 0;
#X connect 22 0 28 0;
#X connect 27 0 21 0;
#X connect 28 0 21 0;
#X connect 29 0 31 0;
#X connect 31 0 30 0;
