#N canvas 843 164 700 819 10;
#X msg 107 131 0 \, destroy;
#X obj 338 198 tgl 15 0 empty empty empty 17 7 0 10 -262144 -1 -1 1
1;
#X obj 297 31 gemhead;
#X obj 299 63 pix_video;
#X obj 298 137 pix_movement 0.2;
#X obj 298 227 alpha;
#X obj 298 269 pix_texture;
#X obj 298 305 pix_blob 4;
#X obj 90 414 rectangle 4 3;
#X floatatom 380 334 5 0 0 0 - - -;
#X obj 66 181 gemwin;
#X obj 315 368 * 100;
#X obj 364 369 * 100;
#X obj 299 492 float;
#X obj 359 491 float;
#X floatatom 299 525 5 0 0 0 - - -;
#X floatatom 359 527 5 0 0 0 - - -;
#X obj 302 578 pack 0 0;
#X msg 302 615 send \$1 \$2;
#X obj 303 724 netsend 1;
#X floatatom 303 783 5 0 0 0 - - -;
#X obj 435 404 t b b;
#X obj 322 550 bng 15 250 50 0 empty empty empty 17 7 0 10 -262144
-1 -1;
#X msg 429 97 1;
#X obj 462 141 / 5;
#X obj 335 649 r bang;
#X obj 298 97 pix_grey;
#X msg 59 22 dimen 320 240 \, frame 5 \, create \, 1;
#X msg 336 677 connect localhost 3002;
#X connect 0 0 10 0;
#X connect 1 0 5 0;
#X connect 2 0 3 0;
#X connect 3 0 26 0;
#X connect 4 0 5 0;
#X connect 5 0 6 0;
#X connect 6 0 7 0;
#X connect 7 0 8 0;
#X connect 7 1 11 0;
#X connect 7 2 12 0;
#X connect 7 3 9 0;
#X connect 9 0 21 0;
#X connect 11 0 13 1;
#X connect 12 0 14 1;
#X connect 13 0 15 0;
#X connect 14 0 16 0;
#X connect 15 0 17 0;
#X connect 16 0 17 1;
#X connect 16 0 22 0;
#X connect 17 0 18 0;
#X connect 18 0 19 0;
#X connect 19 0 20 0;
#X connect 21 0 13 0;
#X connect 21 1 14 0;
#X connect 22 0 17 0;
#X connect 23 0 24 0;
#X connect 24 0 4 1;
#X connect 25 0 28 0;
#X connect 26 0 4 0;
#X connect 27 0 10 0;
#X connect 28 0 19 0;
