#N canvas 1114 114 700 819 10;
#X msg 92 26 create \, 1;
#X msg 116 60 0 \, destroy;
#X obj 338 198 tgl 15 0 empty empty empty 17 7 0 10 -262144 -1 -1 1
1;
#X obj 297 31 gemhead;
#X obj 299 63 pix_video;
#X obj 298 98 pix_rgba;
#X obj 298 137 pix_movement 0.2;
#X obj 298 227 alpha;
#X obj 298 269 pix_texture;
#X obj 298 305 pix_blob 4;
#X obj 90 414 rectangle 4 3;
#X floatatom 380 334 5 0 0 0 - - -;
#X obj 75 110 gemwin;
#X obj 315 368 * 100;
#X obj 364 369 * 100;
#X obj 299 492 float;
#X obj 359 491 float;
#X floatatom 299 525 5 0 0 0 - - -;
#X floatatom 359 527 5 0 0 0 - - -;
#X obj 302 578 pack 0 0;
#X msg 302 615 send \$1 \$2;
#X obj 301 690 netsend 1;
#X floatatom 301 749 5 0 0 0 - - -;
#X obj 435 404 t b b;
#X obj 433 258 bng 15 250 50 0 empty empty empty 0 -6 0 8 -262144 -1
-1;
#X obj 480 258 bng 15 250 50 0 empty empty empty 0 -6 0 8 -262144 -1
-1;
#X msg 480 301 0;
#X msg 433 302 1;
#X obj 322 550 bng 15 250 50 0 empty empty empty 17 7 0 10 -262144
-1 -1;
#X obj 497 413 bng 15 250 50 0 empty empty empty 17 7 0 10 -262144
-1 -1;
#X obj 435 349 metro 5000;
#X msg 334 643 connect peggy-VAIO 3002;
#X msg 429 97 1;
#X obj 462 141 / 5;
#X connect 0 0 12 0;
#X connect 1 0 12 0;
#X connect 2 0 7 0;
#X connect 3 0 4 0;
#X connect 4 0 5 0;
#X connect 5 0 6 0;
#X connect 6 0 7 0;
#X connect 7 0 8 0;
#X connect 8 0 9 0;
#X connect 9 0 10 0;
#X connect 9 1 13 0;
#X connect 9 2 14 0;
#X connect 9 3 11 0;
#X connect 11 0 23 0;
#X connect 13 0 15 1;
#X connect 14 0 16 1;
#X connect 15 0 17 0;
#X connect 16 0 18 0;
#X connect 17 0 19 0;
#X connect 18 0 19 1;
#X connect 18 0 28 0;
#X connect 19 0 20 0;
#X connect 20 0 21 0;
#X connect 21 0 22 0;
#X connect 23 0 15 0;
#X connect 23 1 16 0;
#X connect 24 0 27 0;
#X connect 25 0 26 0;
#X connect 26 0 30 0;
#X connect 27 0 30 0;
#X connect 28 0 19 0;
#X connect 30 0 29 0;
#X connect 31 0 21 0;
#X connect 32 0 33 0;
#X connect 33 0 6 1;
