#N canvas 753 97 651 716 10;
#X obj 77 121 gemhead;
#X obj 42 266 pix_texture;
#X obj 134 160 pix_video;
#X text 356 108 <-- get the video camera;
#X text 356 133 <-- convert to grey for easier tracking;
#X text 29 502 render the video of the;
#X text 38 519 frame difference;
#N canvas 348 71 813 594 histogram 0;
#X obj 270 39 inlet;
#X floatatom 452 199 5 0 0 0 - - -;
#X obj 388 526 outlet;
#N canvas 0 4 450 300 high 0;
#X obj 136 88 inlet;
#X obj 141 143 sel 1;
#X floatatom 206 147 5 0 0 0 - - -;
#X obj 206 169 sel 1;
#X obj 205 196 bng 15 250 50 0 empty empty empty 17 7 0 10 -262144
-1 -1;
#X obj 205 227 outlet;
#X connect 0 0 1 0;
#X connect 1 1 2 0;
#X connect 2 0 1 1;
#X connect 2 0 3 0;
#X connect 3 0 4 0;
#X connect 4 0 5 0;
#X restore 464 251 pd high;
#X obj 485 284 bng 15 250 50 0 empty empty empty 17 7 0 10 -262144
-1 -1;
#X obj 222 221 loadbang;
#X msg 222 242 1;
#X obj 223 302 int;
#X obj 259 302 + 1;
#X floatatom 228 348 5 0 0 0 - - -;
#X obj 222 263 metro 500;
#X obj 237 376 sel 5;
#X floatatom 380 442 5 0 0 0 - - -;
#X floatatom 339 121 5 0 0 0 - - -;
#X text 431 113 movement;
#X text 515 114 still;
#X text 203 200 watchdog;
#X obj 373 48 inlet;
#X msg 432 129 1;
#X msg 523 130 0;
#X obj 353 245 sel 1;
#X msg 304 270 1;
#X msg 309 416 0;
#X msg 414 413 1;
#X obj 344 151 expr $f1 \; if ($f1 > 0.1 \, 1 \, 0) \;;
#X connect 1 0 3 0;
#X connect 1 0 20 0;
#X connect 3 0 4 0;
#X connect 5 0 6 0;
#X connect 6 0 10 0;
#X connect 7 0 8 0;
#X connect 7 0 9 0;
#X connect 8 0 7 1;
#X connect 9 0 11 0;
#X connect 10 0 7 0;
#X connect 11 0 21 0;
#X connect 11 0 22 0;
#X connect 12 0 2 0;
#X connect 13 0 24 0;
#X connect 17 0 13 0;
#X connect 20 0 21 0;
#X connect 20 0 23 0;
#X connect 21 0 7 0;
#X connect 22 0 12 0;
#X connect 23 0 12 0;
#X connect 24 1 1 0;
#X restore 66 401 pd histogram;
#X floatatom 209 363 5 0 0 0 - - -;
#X obj 149 132 t a a;
#X msg 153 82 dimen 320 240;
#X msg 175 109 colorspace Grey;
#X obj 117 318 pix_blob 4;
#X msg 153 266 4;
#X floatatom 86 363 5 0 0 0 - - -;
#X floatatom 151 365 5 0 0 0 - - -;
#X floatatom 158 442 5 0 0 0 - - -;
#X obj 380 421 loadbang;
#X obj 373 168 loadbang;
#X obj 377 233 gemwin;
#X msg 377 206 create \, 1;
#N canvas 1396 12 450 300 change 0;
#X obj 136 88 inlet;
#X obj 141 143 sel 1;
#X floatatom 206 147 5 0 0 0 - - -;
#X obj 205 227 outlet;
#X connect 0 0 1 0;
#X connect 1 1 2 0;
#X connect 2 0 1 1;
#X connect 2 0 3 0;
#X restore 187 466 pd change;
#X msg 470 214 destroy \, 1;
#X obj 484 510 netsend 1;
#X obj 230 398 pack 10 10;
#X msg 233 419 send \$1 \$2;
#X msg 189 524 send \$1;
#X obj 272 556 netsend 1;
#X obj 134 188 pix_movement 0.05;
#X msg 221 144 0.05;
#X floatatom 486 532 5 0 0 0 - - -;
#X floatatom 270 582 5 0 0 0 - - -;
#X obj 409 618 sel 0;
#X text 458 620 reconnects when needed;
#X msg 452 472 connect 192.168.0.5 3002;
#X obj 373 671 bng 15 250 50 0 empty empty empty 17 7 0 10 -262144
-1 -1;
#X msg 272 531 connect 192.168.0.5 3003;
#X connect 0 0 2 0;
#X connect 1 0 12 0;
#X connect 1 0 7 0;
#X connect 2 0 28 0;
#X connect 7 0 16 0;
#X connect 8 0 7 1;
#X connect 8 0 24 1;
#X connect 9 0 2 0;
#X connect 10 0 9 0;
#X connect 11 0 9 0;
#X connect 12 1 14 0;
#X connect 12 2 15 0;
#X connect 12 3 8 0;
#X connect 13 0 12 1;
#X connect 14 0 24 0;
#X connect 16 0 21 0;
#X connect 17 0 34 0;
#X connect 17 0 36 0;
#X connect 18 0 20 0;
#X connect 20 0 19 0;
#X connect 21 0 26 0;
#X connect 22 0 19 0;
#X connect 23 0 30 0;
#X connect 24 0 25 0;
#X connect 25 0 23 0;
#X connect 26 0 27 0;
#X connect 27 0 31 0;
#X connect 28 0 1 0;
#X connect 29 0 28 1;
#X connect 32 0 36 0;
#X connect 32 0 34 0;
#X connect 32 0 35 0;
#X connect 34 0 23 0;
#X connect 36 0 27 0;
