#N canvas 0 95 1024 673 10;
#X obj 77 121 gemhead;
#X obj 42 271 pix_texture;
#X obj 134 160 pix_video;
#X text 356 108 <-- get the video camera;
#X text 356 133 <-- convert to grey for easier tracking;
#X text 29 502 render the video of the;
#X text 38 519 frame difference;
#X floatatom 209 363 5 0 0 0 - - -;
#X obj 149 132 t a a;
#X obj 117 318 pix_blob 4;
#X msg 153 266 4;
#X floatatom 104 371 5 0 0 0 - - -;
#X floatatom 151 365 5 0 0 0 - - -;
#X floatatom 158 442 5 0 0 0 - - -;
#X obj 380 421 loadbang;
#X obj 373 168 loadbang;
#X obj 377 233 gemwin;
#N canvas 1396 12 450 300 change 0;
#X obj 136 88 inlet;
#X obj 141 143 sel 1;
#X floatatom 206 147 5 0 0 0 - - -;
#X obj 205 227 outlet;
#X connect 0 0 1 0;
#X connect 1 1 2 0;
#X connect 2 0 1 1;
#X connect 2 0 3 0;
#X restore 187 466 pd change;
#X msg 479 249 destroy \, 1;
#X obj 490 513 netsend 1;
#X obj 230 398 pack 10 10;
#X msg 233 419 send \$1 \$2;
#X msg 189 524 send \$1;
#X obj 304 620 sel 0;
#X text 362 577 reconnects when needed;
#X obj 481 542 sel 0;
#N canvas 38 133 813 594 movement 0;
#X obj 270 39 inlet;
#X floatatom 452 199 5 0 0 0 - - -;
#X obj 388 526 outlet;
#N canvas 0 4 450 300 high 0;
#X obj 136 88 inlet;
#X obj 141 143 sel 1;
#X floatatom 206 147 5 0 0 0 - - -;
#X obj 206 169 sel 1;
#X obj 205 196 bng 15 250 50 0 empty empty empty 17 7 0 10 -262144
-1 -1;
#X obj 205 227 outlet;
#X connect 0 0 1 0;
#X connect 1 1 2 0;
#X connect 2 0 1 1;
#X connect 2 0 3 0;
#X connect 3 0 4 0;
#X connect 4 0 5 0;
#X restore 464 251 pd high;
#X obj 485 284 bng 15 250 50 0 empty empty empty 17 7 0 10 -262144
-1 -1;
#X obj 222 221 loadbang;
#X msg 222 242 1;
#X obj 223 302 int;
#X obj 259 302 + 1;
#X floatatom 228 348 5 0 0 0 - - -;
#X obj 222 263 metro 500;
#X obj 237 376 sel 5;
#X floatatom 380 442 5 0 0 0 - - -;
#X floatatom 339 121 5 0 0 0 - - -;
#X text 431 113 movement;
#X text 515 114 still;
#X text 203 200 watchdog;
#X obj 373 48 inlet;
#X msg 432 129 1;
#X msg 523 130 0;
#X obj 353 245 sel 1;
#X msg 304 270 1;
#X msg 309 416 0;
#X msg 414 413 1;
#X obj 344 151 expr $f1 \; if ($f1 > 0.1 \, 1 \, 0) \;;
#X connect 1 0 3 0;
#X connect 1 0 20 0;
#X connect 3 0 4 0;
#X connect 5 0 6 0;
#X connect 6 0 10 0;
#X connect 7 0 8 0;
#X connect 7 0 9 0;
#X connect 8 0 7 1;
#X connect 9 0 11 0;
#X connect 10 0 7 0;
#X connect 11 0 21 0;
#X connect 11 0 22 0;
#X connect 12 0 2 0;
#X connect 13 0 24 0;
#X connect 17 0 13 0;
#X connect 20 0 21 0;
#X connect 20 0 23 0;
#X connect 21 0 7 0;
#X connect 22 0 12 0;
#X connect 23 0 12 0;
#X connect 24 1 1 0;
#X restore 66 401 pd movement;
#N canvas -2 155 1009 708 control_robot 1;
#X obj 518 206 inlet;
#X obj 354 420 netsend;
#X msg 279 318 send walk;
#X msg 412 319 send stop;
#X obj 381 463 sel 0;
#X obj 363 263 sel 1;
#X msg 429 378 connect 192.168.1.102 9001;
#X obj 505 327 loadbang;
#X connect 0 0 5 0;
#X connect 1 0 4 0;
#X connect 2 0 1 0;
#X connect 3 0 1 0;
#X connect 5 0 2 0;
#X connect 5 1 3 0;
#X connect 6 0 1 0;
#X connect 7 0 6 0;
#X restore 53 619 pd control_robot;
#X obj 198 495 pack 1;
#X obj 267 556 netsend;
#X floatatom 245 589 5 0 0 0 - - -;
#X obj 194 567 bng 15 250 50 0 empty empty empty 17 7 0 10 -262144
-1 -1;
#X obj 41 464 rectangle 4 4;
#X obj 109 193 alpha;
#X obj 158 70 loadbang;
#X msg 155 100 colorspace Grey \, dimen 320 240;
#X msg 452 471 connect 192.168.1.104 3002;
#X msg 288 517 connect 192.168.1.104 3003;
#X msg 377 206 fullscreen 1 \, perspec -0.6 0.6 -1 1 1 4 \, create
\, 1;
#X obj 128 219 pix_movement 0.15;
#X connect 0 0 2 0;
#X connect 1 0 9 0;
#X connect 1 0 32 0;
#X connect 2 0 33 0;
#X connect 7 0 26 1;
#X connect 7 0 20 1;
#X connect 8 0 2 0;
#X connect 9 1 11 0;
#X connect 9 2 12 0;
#X connect 9 3 7 0;
#X connect 10 0 9 1;
#X connect 11 0 20 0;
#X connect 13 0 17 0;
#X connect 14 0 36 0;
#X connect 14 0 37 0;
#X connect 15 0 38 0;
#X connect 17 0 27 0;
#X connect 17 0 28 0;
#X connect 17 0 31 0;
#X connect 18 0 16 0;
#X connect 19 0 25 0;
#X connect 20 0 21 0;
#X connect 21 0 19 0;
#X connect 22 0 29 0;
#X connect 23 0 37 0;
#X connect 25 0 36 0;
#X connect 26 0 13 0;
#X connect 28 0 22 0;
#X connect 29 0 30 0;
#X connect 30 0 23 0;
#X connect 31 0 30 0;
#X connect 33 0 39 0;
#X connect 34 0 35 0;
#X connect 35 0 8 0;
#X connect 36 0 19 0;
#X connect 37 0 29 0;
#X connect 38 0 16 0;
#X connect 39 0 1 0;
