#N canvas 394 84 450 378 10;
#X obj 90 285 text2d;
#X obj 147 144 textfile;
#X msg 177 94 rewind;
#X msg 196 120 bang;
#X msg 147 72 read tweet.txt;
#X obj 147 199 print list;
#X msg 40 117 font \$1;
#X obj 40 98 openpanel;
#X obj 40 81 bng 15 250 50 0 empty empty empty 0 -6 0 8 -262144 -1
-1;
#X obj 192 177 print TweetEnd;
#X obj 20 36 gemhead;
#X obj 20 57 translateXYZ;
#X floatatom 113 31 5 -10 10 0 - - -;
#X floatatom 79 29 3 -3.5 3.5 0 - - -;
#X floatatom 318 236 5 0 100 1 size - -;
#X msg 307 187 alias \$1;
#X obj 307 169 tgl 15 0 empty empty empty 0 -6 0 8 -262144 -1 -1 0
1;
#X msg 308 213 justify left base;
#N canvas 0 22 450 300 gemwin 0;
#X obj 132 136 gemwin;
#X obj 67 89 outlet;
#X obj 67 10 inlet;
#X obj 67 41 route create;
#X msg 67 70 set destroy;
#X msg 142 68 set create;
#X msg 198 112 destroy;
#X msg 132 112 create \, 1;
#X connect 2 0 3 0;
#X connect 3 0 4 0;
#X connect 3 0 7 0;
#X connect 3 1 5 0;
#X connect 3 1 6 0;
#X connect 4 0 1 0;
#X connect 5 0 1 0;
#X connect 6 0 0 0;
#X connect 7 0 0 0;
#X restore 270 49 pd gemwin;
#X msg 249 33 destroy;
#X msg 102 237 text \$1 \$2 \$3 \$4 \$5 \$5;
#X text 20 138 First load a font;
#X text 235 120 bang for next line;
#X connect 1 0 5 0;
#X connect 1 0 20 0;
#X connect 1 1 9 0;
#X connect 2 0 1 0;
#X connect 3 0 1 0;
#X connect 4 0 1 0;
#X connect 6 0 0 0;
#X connect 7 0 6 0;
#X connect 8 0 7 0;
#X connect 10 0 11 0;
#X connect 11 0 0 0;
#X connect 12 0 11 3;
#X connect 13 0 11 1;
#X connect 14 0 0 1;
#X connect 15 0 0 0;
#X connect 16 0 15 0;
#X connect 17 0 0 0;
#X connect 18 0 19 0;
#X connect 19 0 18 0;
#X connect 20 0 0 0;
